#format: frame checksums
#version: 2
#hash: MD5
#tb 0: 1001/30000
#media_type 0: video
#codec_id 0: rawvideo
#dimensions 0: 200x224
#sar 0: 1/1
#stream#, dts,        pts, duration,     size, hash
0,          0,          0,        1,    67200, 315d69847bf752a84231a368278eb0b6
0,          1,          1,        1,    67200, d245738f8627fc345ab38a547bc7d352
0,          2,          2,        1,    67200, 982681cdca448919c2eead94435772ad
0,          3,          3,        1,    67200, 7b67b2d96476e17cd407bbccb19fd070
0,          4,          4,        1,    67200, c38dde73ca097049d1fc689e18a49b5d
0,          5,          5,        1,    67200, 525f323b81d780c669a03655bb0d0b56
0,          6,          6,        1,    67200, 5dbeb96f65e383771c1c877ec559044a
0,          7,          7,        1,    67200, 7d96e976265ef0f9faf173376caaa9e9
0,          8,          8,        1,    67200, 6047c805a724701b80a133486aae0e65
0,          9,          9,        1,    67200, eb8895dd994076a52aa3a0c1758ccbb7
